<svg id="object" xmlns="http://www.w3.org/2000/svg" viewBox="0 0 1260 1260"><defs><style>.cls-1,.cls-2,.cls-3,.cls-4,.cls-5{fill:#fff;}.cls-1{opacity:0.08;}.cls-2{opacity:0.16;}.cls-3{opacity:0.24;}.cls-4{opacity:0.4;}.cls-5{opacity:0.32;}</style></defs><path class="cls-1" d="M630,1071a442.67,442.67,0,0,1-74.48-6.76L525,1242.46c34.22,5.83,69.16,9.54,105,9.54s70.82-3.71,105-9.54l-30.56-178.22A442.67,442.67,0,0,1,630,1071Zm152.62-27.69,62.64,169.62c32.56-12.06,64.67-26.32,95.74-44.26s59.48-38.62,86.2-60.78L911.84,969.09A440.15,440.15,0,0,1,782.62,1043.31ZM232.8,1107.89c26.72,22.16,55.13,42.84,86.2,60.78s63.18,32.2,95.74,44.26l62.64-169.62a440.15,440.15,0,0,1-129.22-74.22Zm244.58-891.2L414.74,47.07C382.18,59.13,350.07,73.39,319,91.33S259.52,130,232.8,152.11l115.36,138.8A440.15,440.15,0,0,1,477.38,216.69ZM969.1,911.84l138.79,115.36c22.16-26.72,42.83-55.13,60.78-86.2s32.2-63.19,44.26-95.74L630,630l413.31,152.63A440.2,440.2,0,0,1,969.1,911.84ZM630,189a442.67,442.67,0,0,1,74.48,6.76L735,17.54C700.82,11.71,665.88,8,630,8s-70.82,3.71-105,9.54l30.56,178.22A442.67,442.67,0,0,1,630,189Zm397.2-36.89C1000.48,130,972.07,109.27,941,91.33s-63.18-32.2-95.74-44.26L782.62,216.69a440.15,440.15,0,0,1,129.22,74.22ZM1168.67,319c-18-31.07-38.62-59.48-60.78-86.2L969.1,348.16a440.2,440.2,0,0,1,74.21,129.21L630,630l582.93-215.26C1200.87,382.19,1186.61,350.07,1168.67,319ZM1252,630c0-35.88-3.7-70.82-9.54-105L630,630l434.24-74.47a413.57,413.57,0,0,1,0,148.94L630,630l612.46,105C1248.3,700.82,1252,665.88,1252,630ZM91.33,941c18,31.07,38.62,59.48,60.78,86.2L290.9,911.84a440.2,440.2,0,0,1-74.21-129.21L630,630,47.07,845.26C59.13,877.81,73.39,909.93,91.33,941ZM290.9,348.16,152.11,232.8C130,259.52,109.28,287.93,91.33,319s-32.2,63.19-44.26,95.74L630,630,216.69,477.37A440.2,440.2,0,0,1,290.9,348.16ZM8,630c0,35.88,3.7,70.82,9.54,105L630,630,195.76,704.47a413.57,413.57,0,0,1,0-148.94L630,630,17.54,525C11.7,559.18,8,594.12,8,630Z"/><path class="cls-2" d="M436.35,863,348.16,969.09a440.15,440.15,0,0,0,129.22,74.22L630,630,525.14,914A302.06,302.06,0,0,1,436.35,863ZM911.84,969.09,823.65,863a302.06,302.06,0,0,1-88.79,51L630,630l152.62,413.31A440.15,440.15,0,0,0,911.84,969.09ZM290.91,911.84,397,823.65a302.35,302.35,0,0,1-51-88.78L630,630,216.69,782.63A439.88,439.88,0,0,0,290.91,911.84ZM863,823.65l106.11,88.19a439.88,439.88,0,0,0,74.22-129.21L630,630,914,734.87A302.35,302.35,0,0,1,863,823.65ZM630,327a303.8,303.8,0,0,1,51.17,4.65l23.31-135.89a413.68,413.68,0,0,0-149,0l23.31,135.89A303.8,303.8,0,0,1,630,327Zm0,606a303.8,303.8,0,0,1-51.17-4.65l-23.31,135.89a413.68,413.68,0,0,0,149,0L681.17,928.35A303.8,303.8,0,0,1,630,933ZM189,630a441.32,441.32,0,0,0,6.76,74.47L630,630,331.65,681.17a283.87,283.87,0,0,1,0-102.34L630,630,195.76,555.53A441.32,441.32,0,0,0,189,630ZM823.65,397l88.19-106.11a440.15,440.15,0,0,0-129.22-74.22L630,630,734.86,346A302.06,302.06,0,0,1,823.65,397ZM1071,630a441.32,441.32,0,0,0-6.76-74.47L630,630l298.35-51.17a283.87,283.87,0,0,1,0,102.34L630,630l434.24,74.47A441.32,441.32,0,0,0,1071,630ZM969.09,348.16,863,436.35a302.35,302.35,0,0,1,51,88.78L630,630l413.31-152.63A439.88,439.88,0,0,0,969.09,348.16ZM348.16,290.91,436.35,397a302.06,302.06,0,0,1,88.79-51L630,630,477.38,216.69A440.15,440.15,0,0,0,348.16,290.91ZM397,436.35,290.91,348.16a439.88,439.88,0,0,0-74.22,129.21L630,630,346,525.13A302.35,302.35,0,0,1,397,436.35Z"/><path class="cls-3" d="M421,630a208.45,208.45,0,0,1,3.21-35.3l-92.56-15.87a283.87,283.87,0,0,0,0,102.34l92.56-15.87A208.45,208.45,0,0,1,421,630Zm13.12,72.33L346,734.87a302.35,302.35,0,0,0,51,88.78l72.28-60.08A208.62,208.62,0,0,1,434.12,702.33ZM436.35,863a302.06,302.06,0,0,0,88.79,51l32.53-88.09a208.4,208.4,0,0,1-61.24-35.18ZM469.3,496.43,397,436.35a302.35,302.35,0,0,0-51,88.78l88.09,32.54A208.62,208.62,0,0,1,469.3,496.43Zm356.58,61.24L914,525.13a302.35,302.35,0,0,0-51-88.78L790.7,496.43A208.62,208.62,0,0,1,825.88,557.67ZM823.65,397a302.06,302.06,0,0,0-88.79-51l-32.53,88.09a208.4,208.4,0,0,1,61.24,35.18Zm-387.3,0,60.08,72.28a208.4,208.4,0,0,1,61.24-35.18L525.14,346A302.06,302.06,0,0,0,436.35,397ZM665.3,835.79,630,630l35.3,205.79Zm-70.6,0L630,630,594.7,835.79Zm0,0-15.87,92.56a283.87,283.87,0,0,0,102.34,0L665.3,835.79a195.7,195.7,0,0,1-70.6,0Zm333.65-257L835.79,594.7a195.7,195.7,0,0,1,0,70.6l92.56,15.87a283.87,283.87,0,0,0,0-102.34ZM790.7,763.57,863,823.65a302.35,302.35,0,0,0,51-88.78l-88.09-32.54A208.62,208.62,0,0,1,790.7,763.57Zm-88.37,62.31L734.86,914a302.06,302.06,0,0,0,88.79-51L763.57,790.7A208.4,208.4,0,0,1,702.33,825.88Zm-37-401.67h0L630,630Zm-70.6,0L630,630,594.7,424.21ZM630,327a303.8,303.8,0,0,0-51.17,4.65l15.87,92.56a195.7,195.7,0,0,1,70.6,0l15.87-92.56A303.8,303.8,0,0,0,630,327Z"/><path class="cls-4" d="M529,714l101-84L506.57,675.58A131,131,0,0,0,529,714Zm185,17.06L630,630l45.58,123.43A131.09,131.09,0,0,0,714,731.05ZM584.42,753.43,630,630l-84,101A131.09,131.09,0,0,0,584.42,753.43ZM630,762a131.72,131.72,0,0,0,22.26-2.24L630,630,607.74,759.76A131.72,131.72,0,0,0,630,762Zm123.43-86.42L630,630l101,84A131,131,0,0,0,753.43,675.58ZM762,630a131.5,131.5,0,0,0-2.24-22.25L630,630l129.76,22.25A131.5,131.5,0,0,0,762,630ZM546,529l84,101L584.42,506.57A131.09,131.09,0,0,0,546,529Zm84-31a131.72,131.72,0,0,0-22.26,2.24L630,630l22.26-129.76A131.72,131.72,0,0,0,630,498Zm45.58,8.57L630,630l84-101A131.09,131.09,0,0,0,675.58,506.57Zm-169,77.85L630,630,529,546A131,131,0,0,0,506.57,584.42ZM498,630a131.5,131.5,0,0,0,2.24,22.25L630,630,500.24,607.75A131.5,131.5,0,0,0,498,630Zm233-84L630,630l123.43-45.58A131,131,0,0,0,731.05,546Z"/><path class="cls-5" d="M421,630a208.45,208.45,0,0,0,3.21,35.3L630,630,500.24,652.25a111.63,111.63,0,0,1,0-44.5L630,630,424.21,594.7A208.45,208.45,0,0,0,421,630Zm48.3,133.57L529,714a131,131,0,0,1-22.38-38.41L630,630,434.12,702.33A208.62,208.62,0,0,0,469.3,763.57Zm88.37,62.31,26.75-72.45A131.09,131.09,0,0,1,546,731.05l84-101L496.43,790.7A208.4,208.4,0,0,0,557.67,825.88ZM731.05,714l59.65,49.58a208.62,208.62,0,0,0,35.18-61.24L630,630l123.43,45.58A131,131,0,0,1,731.05,714ZM630,498a131.83,131.83,0,0,1,22.26,2.24l13-76a195.7,195.7,0,0,0-70.6,0l13,76A131.83,131.83,0,0,1,630,498Zm0,264a131.83,131.83,0,0,1-22.26-2.24l-13,76a195.7,195.7,0,0,0,70.6,0l-13-76A131.83,131.83,0,0,1,630,762Zm45.58-8.57,26.75,72.45a208.4,208.4,0,0,0,61.24-35.18L630,630l84,101A131.09,131.09,0,0,1,675.58,753.43Zm115.12-257L731.05,546a131,131,0,0,1,22.38,38.41L630,630l195.88-72.33A208.62,208.62,0,0,0,790.7,496.43Zm-88.37-62.31-26.75,72.45A131.09,131.09,0,0,1,714,529L630,630,763.57,469.3A208.4,208.4,0,0,0,702.33,434.12ZM839,630a208.45,208.45,0,0,0-3.21-35.3L630,630l129.76-22.25a111.63,111.63,0,0,1,0,44.5L630,630l205.79,35.3A208.45,208.45,0,0,0,839,630ZM529,546,469.3,496.43a208.62,208.62,0,0,0-35.18,61.24L630,630,506.57,584.42A131,131,0,0,1,529,546Zm55.47-39.44-26.75-72.45a208.4,208.4,0,0,0-61.24,35.18L630,630,546,529A131.09,131.09,0,0,1,584.42,506.57Z"/></svg>